<svg width="192" height="192" viewBox="0 0 192 192" fill="none" xmlns="http://www.w3.org/2000/svg">
<g clip-path="url(#clip0_8_20)">
<path d="M96 0L117.553 66.3344H187.301L130.874 107.331L152.427 173.666L96 132.669L39.5726 173.666L61.126 107.331L4.69858 66.3344H74.4467L96 0Z" fill="#EAF1BC"/>
<g filter="url(#filter0_d_8_20)">
<path d="M44.5511 106V103.445L54.7131 89.1861H44.5312V85.6364H60.1222V88.1918L49.9503 102.45H60.142V106H44.5511ZM81.2017 95.8182C81.2017 98.0388 80.7808 99.928 79.9389 101.486C79.1037 103.044 77.9635 104.233 76.5185 105.055C75.08 105.871 73.4626 106.278 71.6662 106.278C69.8565 106.278 68.2325 105.867 66.794 105.045C65.3556 104.223 64.2188 103.034 63.3835 101.476C62.5483 99.9181 62.1307 98.0322 62.1307 95.8182C62.1307 93.5975 62.5483 91.7083 63.3835 90.1506C64.2188 88.5928 65.3556 87.4062 66.794 86.5909C68.2325 85.7689 69.8565 85.358 71.6662 85.358C73.4626 85.358 75.08 85.7689 76.5185 86.5909C77.9635 87.4062 79.1037 88.5928 79.9389 90.1506C80.7808 91.7083 81.2017 93.5975 81.2017 95.8182ZM76.8366 95.8182C76.8366 94.3797 76.6212 93.1667 76.1903 92.179C75.7661 91.1913 75.1662 90.4422 74.3906 89.9318C73.6151 89.4214 72.7069 89.1662 71.6662 89.1662C70.6255 89.1662 69.7173 89.4214 68.9418 89.9318C68.1662 90.4422 67.563 91.1913 67.1321 92.179C66.7079 93.1667 66.4957 94.3797 66.4957 95.8182C66.4957 97.2566 66.7079 98.4697 67.1321 99.4574C67.563 100.445 68.1662 101.194 68.9418 101.705C69.7173 102.215 70.6255 102.47 71.6662 102.47C72.7069 102.47 73.6151 102.215 74.3906 101.705C75.1662 101.194 75.7661 100.445 76.1903 99.4574C76.6212 98.4697 76.8366 97.2566 76.8366 95.8182ZM95.4379 91.4929C95.3583 90.6908 95.0169 90.0677 94.4137 89.6236C93.8105 89.1794 92.9918 88.9574 91.9577 88.9574C91.2551 88.9574 90.6618 89.0568 90.1779 89.2557C89.694 89.4479 89.3228 89.7164 89.0643 90.0611C88.8124 90.4058 88.6864 90.7969 88.6864 91.2344C88.6732 91.599 88.7494 91.9171 88.9151 92.1889C89.0875 92.4607 89.3228 92.696 89.6211 92.8949C89.9194 93.0871 90.2641 93.2562 90.6552 93.402C91.0463 93.5412 91.4639 93.6605 91.908 93.7599L93.7376 94.1974C94.6258 94.3963 95.4412 94.6615 96.1836 94.9929C96.926 95.3243 97.569 95.732 98.1126 96.2159C98.6561 96.6998 99.0771 97.2699 99.3754 97.9261C99.6803 98.5824 99.8361 99.3348 99.8427 100.183C99.8361 101.429 99.5179 102.51 98.8881 103.425C98.265 104.333 97.3635 105.039 96.1836 105.543C95.0103 106.04 93.5951 106.288 91.9379 106.288C90.2939 106.288 88.8621 106.036 87.6424 105.533C86.4293 105.029 85.4814 104.283 84.7987 103.295C84.1225 102.301 83.7679 101.071 83.7347 99.6065H87.9009C87.9473 100.289 88.1429 100.859 88.4876 101.317C88.8389 101.768 89.3062 102.109 89.8896 102.341C90.4795 102.566 91.1457 102.679 91.8881 102.679C92.6173 102.679 93.2504 102.573 93.7873 102.361C94.3308 102.149 94.7518 101.854 95.0501 101.476C95.3484 101.098 95.4975 100.664 95.4975 100.173C95.4975 99.7159 95.3616 99.3314 95.0898 99.0199C94.8247 98.7083 94.4336 98.4432 93.9165 98.2244C93.4061 98.0057 92.7797 97.8068 92.0373 97.6278L89.82 97.071C88.1031 96.6534 86.7475 96.0005 85.7532 95.1122C84.7589 94.224 84.265 93.0275 84.2717 91.5227C84.265 90.2898 84.5932 89.2126 85.256 88.2912C85.9255 87.3698 86.8436 86.6506 88.0103 86.1335C89.177 85.6165 90.5027 85.358 91.9876 85.358C93.4989 85.358 94.8181 85.6165 95.945 86.1335C97.0785 86.6506 97.9601 87.3698 98.5898 88.2912C99.2196 89.2126 99.5444 90.2798 99.5643 91.4929H95.4379ZM102.739 85.6364H108.048L113.656 99.3182H113.895L119.503 85.6364H124.812V106H120.636V92.7457H120.467L115.197 105.901H112.354L107.084 92.696H106.915V106H102.739V85.6364ZM131.87 106H127.256L134.286 85.6364H139.834L146.854 106H142.24L137.14 90.2898H136.98L131.87 106ZM131.581 97.9957H142.479V101.357H131.581V97.9957Z" fill="#C51111"/>
</g>
</g>
<defs>
<filter id="filter0_d_8_20" x="40.5312" y="85.358" width="110.323" height="28.9304" filterUnits="userSpaceOnUse" color-interpolation-filters="sRGB">
<feFlood flood-opacity="0" result="BackgroundImageFix"/>
<feColorMatrix in="SourceAlpha" type="matrix" values="0 0 0 0 0 0 0 0 0 0 0 0 0 0 0 0 0 0 127 0" result="hardAlpha"/>
<feOffset dy="4"/>
<feGaussianBlur stdDeviation="2"/>
<feComposite in2="hardAlpha" operator="out"/>
<feColorMatrix type="matrix" values="0 0 0 0 0 0 0 0 0 0 0 0 0 0 0 0 0 0 0.25 0"/>
<feBlend mode="normal" in2="BackgroundImageFix" result="effect1_dropShadow_8_20"/>
<feBlend mode="normal" in="SourceGraphic" in2="effect1_dropShadow_8_20" result="shape"/>
</filter>
<clipPath id="clip0_8_20">
<rect width="192" height="192" fill="white"/>
</clipPath>
</defs>
</svg>
